<svg width="362.64" height="258.65" version="1.1" viewBox="0 0 95.948 68.434" xmlns="http://www.w3.org/2000/svg">
 <defs>
  <filter id="filter6965" x="-.61411" y="-.57162" width="2.2282" height="2.1433" style="color-interpolation-filters:sRGB">
   <feGaussianBlur result="result1" stdDeviation="4"/>
   <feComposite in="result1" in2="result1" operator="in" result="result4"/>
   <feGaussianBlur in="result4" result="result6" stdDeviation="2"/>
   <feComposite in="result6" in2="result4" operator="xor" result="result8"/>
   <feComposite in="result4" in2="result8" operator="atop" result="fbSourceGraphic"/>
   <feSpecularLighting lighting-color="#ffffff" in="fbSourceGraphic" result="result1" specularConstant="1.29999995" specularExponent="10" surfaceScale="3">
    <feDistantLight azimuth="235" elevation="55"/>
   </feSpecularLighting>
   <feComposite in="result1" in2="fbSourceGraphic" operator="atop" result="result2"/>
   <feComposite in="fbSourceGraphic" in2="result2" k2="1" k3="1" operator="arithmetic" result="result4"/>
   <feComposite in="result4" in2="SourceGraphic"/>
   <feBlend in2="result2" mode="multiply" result="fbSourceGraphic"/>
   <feColorMatrix in="fbSourceGraphic" result="fbSourceGraphicAlpha" values="0 0 0 -1 0 0 0 0 -1 0 0 0 0 -1 0 0 0 0 1 0"/>
   <feTurbulence baseFrequency="1" numOctaves="3" result="result0" type="fractalNoise"/>
   <feColorMatrix result="result4" type="saturate" values="0"/>
   <feComposite in="fbSourceGraphic" in2="result4" k1="1.25" k2="0.5" k3="0.5" operator="arithmetic" result="result2"/>
   <feBlend in="result2" in2="fbSourceGraphic" result="result5"/>
   <feComposite in="result5" in2="fbSourceGraphic" operator="in" result="fbSourceGraphic"/>
   <feColorMatrix in="fbSourceGraphic" result="fbSourceGraphicAlpha" values="0 0 0 -1 0 0 0 0 -1 0 0 0 0 -1 0 0 0 0 1 0"/>
   <feColorMatrix in="fbSourceGraphic" result="result2" type="luminanceToAlpha"/>
   <feDiffuseLighting lighting-color="#ffffff" diffuseConstant="0.5" in="result2" result="result1" surfaceScale="15">
    <feDistantLight azimuth="225" elevation="10"/>
   </feDiffuseLighting>
   <feComposite in2="fbSourceGraphic" k2="1" k3="0.8" operator="arithmetic" result="result9"/>
   <feComposite in="result9" in2="fbSourceGraphic" operator="in" result="result7"/>
  </filter>
  <filter id="filter6989" x="-.61803" y="-.51251" width="2.2361" height="2.0251" style="color-interpolation-filters:sRGB">
   <feGaussianBlur result="result1" stdDeviation="4"/>
   <feComposite in="result1" in2="result1" operator="in" result="result4"/>
   <feGaussianBlur in="result4" result="result6" stdDeviation="2"/>
   <feComposite in="result6" in2="result4" operator="xor" result="result8"/>
   <feComposite in="result4" in2="result8" operator="atop" result="fbSourceGraphic"/>
   <feSpecularLighting lighting-color="#ffffff" in="fbSourceGraphic" result="result1" specularConstant="1.29999995" specularExponent="10" surfaceScale="3">
    <feDistantLight azimuth="235" elevation="55"/>
   </feSpecularLighting>
   <feComposite in="result1" in2="fbSourceGraphic" operator="atop" result="result2"/>
   <feComposite in="fbSourceGraphic" in2="result2" k2="1" k3="1" operator="arithmetic" result="result4"/>
   <feComposite in="result4" in2="SourceGraphic"/>
   <feBlend in2="result2" mode="multiply" result="fbSourceGraphic"/>
   <feColorMatrix in="fbSourceGraphic" result="fbSourceGraphicAlpha" values="0 0 0 -1 0 0 0 0 -1 0 0 0 0 -1 0 0 0 0 1 0"/>
   <feTurbulence baseFrequency="1" numOctaves="3" result="result0" type="fractalNoise"/>
   <feColorMatrix result="result4" type="saturate" values="0"/>
   <feComposite in="fbSourceGraphic" in2="result4" k1="1.25" k2="0.5" k3="0.5" operator="arithmetic" result="result2"/>
   <feBlend in="result2" in2="fbSourceGraphic" result="result5"/>
   <feComposite in="result5" in2="fbSourceGraphic" operator="in" result="fbSourceGraphic"/>
   <feColorMatrix in="fbSourceGraphic" result="fbSourceGraphicAlpha" values="0 0 0 -1 0 0 0 0 -1 0 0 0 0 -1 0 0 0 0 1 0"/>
   <feColorMatrix in="fbSourceGraphic" result="result2" type="luminanceToAlpha"/>
   <feDiffuseLighting lighting-color="#ffffff" diffuseConstant="0.5" in="result2" result="result1" surfaceScale="15">
    <feDistantLight azimuth="225" elevation="10"/>
   </feDiffuseLighting>
   <feComposite in2="fbSourceGraphic" k2="1" k3="0.8" operator="arithmetic" result="result9"/>
   <feComposite in="result9" in2="fbSourceGraphic" operator="in" result="result7"/>
  </filter>
  <filter id="filter7013" x="-.30935" y="-.39165" width="1.6186" height="1.7833" style="color-interpolation-filters:sRGB">
   <feGaussianBlur result="result1" stdDeviation="4"/>
   <feComposite in="result1" in2="result1" operator="in" result="result4"/>
   <feGaussianBlur in="result4" result="result6" stdDeviation="2"/>
   <feComposite in="result6" in2="result4" operator="xor" result="result8"/>
   <feComposite in="result4" in2="result8" operator="atop" result="fbSourceGraphic"/>
   <feSpecularLighting lighting-color="#ffffff" in="fbSourceGraphic" result="result1" specularConstant="1.29999995" specularExponent="10" surfaceScale="3">
    <feDistantLight azimuth="235" elevation="55"/>
   </feSpecularLighting>
   <feComposite in="result1" in2="fbSourceGraphic" operator="atop" result="result2"/>
   <feComposite in="fbSourceGraphic" in2="result2" k2="1" k3="1" operator="arithmetic" result="result4"/>
   <feComposite in="result4" in2="SourceGraphic"/>
   <feBlend in2="result2" mode="multiply" result="fbSourceGraphic"/>
   <feColorMatrix in="fbSourceGraphic" result="fbSourceGraphicAlpha" values="0 0 0 -1 0 0 0 0 -1 0 0 0 0 -1 0 0 0 0 1 0"/>
   <feTurbulence baseFrequency="1" numOctaves="3" result="result0" type="fractalNoise"/>
   <feColorMatrix result="result4" type="saturate" values="0"/>
   <feComposite in="fbSourceGraphic" in2="result4" k1="1.25" k2="0.5" k3="0.5" operator="arithmetic" result="result2"/>
   <feBlend in="result2" in2="fbSourceGraphic" result="result5"/>
   <feComposite in="result5" in2="fbSourceGraphic" operator="in" result="fbSourceGraphic"/>
   <feColorMatrix in="fbSourceGraphic" result="fbSourceGraphicAlpha" values="0 0 0 -1 0 0 0 0 -1 0 0 0 0 -1 0 0 0 0 1 0"/>
   <feColorMatrix in="fbSourceGraphic" result="result2" type="luminanceToAlpha"/>
   <feDiffuseLighting lighting-color="#ffffff" diffuseConstant="0.5" in="result2" result="result1" surfaceScale="15">
    <feDistantLight azimuth="225" elevation="10"/>
   </feDiffuseLighting>
   <feComposite in2="fbSourceGraphic" k2="1" k3="0.8" operator="arithmetic" result="result9"/>
   <feComposite in="result9" in2="fbSourceGraphic" operator="in" result="result7"/>
  </filter>
  <filter id="filter7037" x="-.22661" y="-1.1817" width="1.4532" height="3.3646" style="color-interpolation-filters:sRGB">
   <feGaussianBlur result="result1" stdDeviation="4"/>
   <feComposite in="result1" in2="result1" operator="in" result="result4"/>
   <feGaussianBlur in="result4" result="result6" stdDeviation="2"/>
   <feComposite in="result6" in2="result4" operator="xor" result="result8"/>
   <feComposite in="result4" in2="result8" operator="atop" result="fbSourceGraphic"/>
   <feSpecularLighting lighting-color="#ffffff" in="fbSourceGraphic" result="result1" specularConstant="1.29999995" specularExponent="10" surfaceScale="3">
    <feDistantLight azimuth="235" elevation="55"/>
   </feSpecularLighting>
   <feComposite in="result1" in2="fbSourceGraphic" operator="atop" result="result2"/>
   <feComposite in="fbSourceGraphic" in2="result2" k2="1" k3="1" operator="arithmetic" result="result4"/>
   <feComposite in="result4" in2="SourceGraphic"/>
   <feBlend in2="result2" mode="multiply" result="fbSourceGraphic"/>
   <feColorMatrix in="fbSourceGraphic" result="fbSourceGraphicAlpha" values="0 0 0 -1 0 0 0 0 -1 0 0 0 0 -1 0 0 0 0 1 0"/>
   <feTurbulence baseFrequency="1" numOctaves="3" result="result0" type="fractalNoise"/>
   <feColorMatrix result="result4" type="saturate" values="0"/>
   <feComposite in="fbSourceGraphic" in2="result4" k1="1.25" k2="0.5" k3="0.5" operator="arithmetic" result="result2"/>
   <feBlend in="result2" in2="fbSourceGraphic" result="result5"/>
   <feComposite in="result5" in2="fbSourceGraphic" operator="in" result="fbSourceGraphic"/>
   <feColorMatrix in="fbSourceGraphic" result="fbSourceGraphicAlpha" values="0 0 0 -1 0 0 0 0 -1 0 0 0 0 -1 0 0 0 0 1 0"/>
   <feColorMatrix in="fbSourceGraphic" result="result2" type="luminanceToAlpha"/>
   <feDiffuseLighting lighting-color="#ffffff" diffuseConstant="0.5" in="result2" result="result1" surfaceScale="15">
    <feDistantLight azimuth="225" elevation="10"/>
   </feDiffuseLighting>
   <feComposite in2="fbSourceGraphic" k2="1" k3="0.8" operator="arithmetic" result="result9"/>
   <feComposite in="result9" in2="fbSourceGraphic" operator="in" result="result7"/>
  </filter>
 </defs>
 <g transform="translate(21.258 -36.163)">
  <path d="m5.0776 80.502c0.061971-1.5034 0.013684-1.0348 0.23957-2.778 0.090574-0.69896 0.17782-1.3986 0.29079-2.0943 0.12652-0.77913 0.29147-1.5516 0.4275-2.3291 1.0074-5.7583-0.12592 0.35922 1.0366-5.7993 0.52691-2.4731 1.1872-4.917 1.9512-7.3271 0.10994-0.34681 0.67785-2.0853 0.91323-2.5486 0.1105-0.21752 0.28412-0.3967 0.42618-0.59505 1.6928-0.79116-1.2742 0.57188-2.4205 1.6489-0.1559 0.14648 0.39998 0.16115 0.57644 0.28208 0.30972 0.21224 0.60565 0.44809 0.8733 0.71141 0.69841 0.6871 2.4475 2.8171 2.906 3.3628 2.9705 3.8689 5.513 8.059 7.6422 12.446 0.28573 0.5887 0.54656 1.1892 0.81984 1.7837 0.62225 1.545 1.3816 3.0906 1.6325 4.7547 0.02058 0.29003 0.01171 0.15412 0.02715 0.4077l3.4338-1.8283v0c-0.07582-0.24172-0.03335-0.10869-0.12833-0.3988-0.30877-0.69623-0.70825-1.3321-1.1127-1.9767-0.48737-0.77678-0.98124-1.5495-1.4656-2.3281-1.2633-2.001-2.5428-3.9928-3.8376-5.9735-0.56027-0.85705-1.1449-1.6982-1.6949-2.5619-1.0473-1.6447-2.3212-3.8087-3.325-5.4926-0.412-0.7837-0.81769-1.5707-1.236-2.3511-0.49085-0.91569-0.86229-1.6958-1.5243-2.4743-0.15589-0.18331-0.29991-0.55297-0.5317-0.48832-3.1921 0.89042-2.9451 0.65261-3.9051 1.95-0.057118 0.1848-0.13004 0.36543-0.17135 0.5544-0.067993 0.311-0.10454 0.62806-0.15585 0.94224-0.074282 0.45486-0.14611 0.91011-0.22093 1.3649-0.38517 2.3412-0.79649 4.6782-1.2672 7.0039-2.1891 9.4077 0.6924-2.8785-1.4607 6.0057-1.5357 6.3367 0.43002-1.4124-1.109 4.6175-0.14901 0.58384-0.27445 1.1744-0.45033 1.7507-0.14068 0.46095-0.33211 0.90486-0.49817 1.3573l3.319-1.5987z" style="fill:#23afdc;filter:url(#filter6965);paint-order:markers stroke fill;stroke-linecap:round;stroke-linejoin:round;stroke-width:.79375;stroke:#000"/>
  <path d="m16.758 79.182c0.01668-0.48603-0.0044-0.97482 0.05003-1.4581 0.08673-0.76982 0.69564-3.9318 0.81423-4.5444 0.1728-0.8927 0.3391-1.7868 0.52982-2.6759 0.25956-1.2099 0.901-3.8386 1.1955-5.0602 0.63504-2.4303 1.3789-4.8311 2.2025-7.2039 0.21173-0.60995 0.55071-1.5028 0.78332-2.1224 0.2707-0.64701 0.48392-1.3338 0.83815-1.9442 0.06075-0.10468 0.31739-0.35416 0.21186-0.29489-3.0887 1.9127-4.0998 2.4676-2.9382 1.8273 0.08769 0.0502 0.186 0.08526 0.26308 0.1506 0.30779 0.2609 0.67052 0.75068 0.88955 1.0502 0.24246 0.33152 0.47838 0.66787 0.70913 1.0076 1.229 1.8096 0.95974 1.4352 2.1503 3.4883 0.4182 0.76724 0.84978 1.5273 1.2546 2.3017 0.71076 1.3597 1.7209 3.4585 2.3898 4.8448 0.37517 0.77757 0.75528 1.5528 1.1212 2.3348 0.75633 1.6165 1.1106 2.4549 1.8081 4.054 0.8189 2.0009 1.7457 3.9574 2.5245 5.9747 0.1666 0.35494 0.31806 0.71716 0.49248 1.0683l3.3571-1.9587v0c-0.24164-0.29419-0.45429-0.61149-0.6728-0.9229-1.1775-1.795-2.2895-3.6328-3.363-5.4916-0.33297-0.59741-0.67338-1.1907-0.99892-1.7922-0.90096-1.6647-1.4098-2.6919-2.2715-4.4021-1.2061-2.3937-2.4044-4.7935-3.4196-7.2766-0.30057-0.69703-0.61063-1.39-0.90171-2.0911-0.55984-1.3483-0.62965-1.6824-1.1804-2.8854-0.1328-0.29007-0.48225-0.97975-0.68488-1.2851-0.08124-0.1224-0.18293-0.22992-0.27439-0.34488-1.4028-0.90185-0.36884-0.36247-3.71 1.8999-0.08536 0.0578-0.0716 0.19343-0.10272 0.2917-0.19128 0.60394-0.344 1.2201-0.53282 1.8248-0.83894 2.9424-1.4553 5.9427-2.0963 8.9328-0.72825 3.2993-0.37396 1.6329-1.0616 4.9995-0.40432 1.8488-0.80119 3.4744-1.3129 5.2929-0.21041 0.74777-0.42017 1.4965-0.67058 2.2319-0.20277 0.59546-0.45857 1.1715-0.68786 1.7573l3.2949-1.5784z" style="fill:#23afdc;filter:url(#filter6989);paint-order:markers stroke fill;stroke-linecap:round;stroke-linejoin:round;stroke-width:.79375;stroke:#000"/>
  <path d="m1.2573 54.077c1.3576-0.36153 2.7521-0.55766 4.1442-0.72873 1.7263-0.21214 3.0436-0.34616 4.7993-0.42597 0.90027-0.04092 1.8019-0.04158 2.7029-0.06237 3.001 0.03354 5.998 0.25608 8.9639 0.72195 1.1068 0.17386 2.2125 0.36208 3.3066 0.60332 2.6707 0.58886 3.5743 0.9675 6.1666 1.8344 2.7015 1.0158 5.3637 2.1845 7.7113 3.8906 0.70437 0.51192 1.3899 1.0577 2.007 1.672 1.6567 1.6492 1.76 2.1694 2.8733 4.1823 0.1934 0.84099 0.47899 1.666 0.5802 2.523 0.20382 1.7259 0.05425 3.4563-0.67446 5.0594-0.76213 1.6767-2.3514 3.4859-3.7286 4.6531-0.89863 0.76151-1.9188 1.3667-2.8782 2.0501-0.6699 0.35315-1.3201 0.74657-2.0097 1.0595-1.3498 0.61242-2.7134 1.1984-4.1031 1.714-4.5466 1.687-9.2707 2.8741-14.048 3.688-1.2711 0.21657-2.5544 0.35364-3.8316 0.53047-2.4226 0.27674-4.8603 0.4237-7.2987 0.37718-0.9457-0.01805-1.7254-0.08474-2.6431-0.24595-0.38697-0.05278-0.72644-0.2546-1.106-0.32632-0.054456-0.0067-0.10891-0.01341-0.16337-0.02013l-3.1757 2.2643v0c0.049441 0.0026 0.098883 0.0051 0.14832 0.0077 0.46047 0.03345 0.90598 0.20957 1.3769 0.16292 0.24266-7.94e-4 0.48546 0.0057 0.72798-0.0024 0.94048-0.03159 1.6477-0.10238 2.6123-0.20452 2.8056-0.29707 5.6018-0.68295 8.383-1.1575 1.3833-0.25476 2.7706-0.489 4.1499-0.7643 3.0742-0.61355 6.3764-1.3482 9.3972-2.1795 2.4349-0.67007 6.0394-1.7518 8.3683-2.8726 1.6294-0.78414 3.1619-1.7554 4.7428-2.633 1.0585-0.73547 2.1839-1.383 3.1756-2.2064 1.3829-1.1482 3.1995-3.2259 3.9801-4.883 0.82902-1.76 0.88631-3.2907 0.646-5.1724-0.11261-0.88178-0.3819-1.7364-0.57286-2.6046-1.102-1.9515-1.3115-2.6586-2.967-4.2312-0.64592-0.61355-1.3803-1.1299-2.1137-1.6356-0.7786-0.53684-1.5827-1.0402-2.4159-1.4876-2.0806-1.1173-3.3215-1.4803-5.5458-2.2957-1.0229-0.34609-2.0325-0.73454-3.0688-1.0383-1.0403-0.30491-2.0997-0.54116-3.1558-0.78612-1.0641-0.24683-2.1293-0.4925-3.2038-0.68906-1.0119-0.18509-2.0318-0.32521-3.0522-0.45529-2.6499-0.3378-3.0786-0.31575-5.6967-0.46006-2.2266-0.01146-2.8275-0.03653-5.0065 0.03471-1.7934 0.05863-3.5859 0.22441-5.3812 0.2021l-3.1231 2.3375z" style="fill:#23afdc;filter:url(#filter7013);paint-order:markers stroke fill;stroke-linecap:round;stroke-linejoin:round;stroke-width:.79375;stroke:#000"/>
  <path d="m-5.9321 68.243c0.17351-0.02649 0.34636-0.05767 0.52052-0.07949 1.132-0.14182 2.2784-0.21183 3.4153-0.29195 3.0162-0.21254 2.1655-0.15144 5.5135-0.3104 1.3485-0.06752 2.6962-0.15376 4.0455-0.20256 1.3966-0.05052 2.7944-0.06451 4.1916-0.09538 4.1525-0.09176 8.3066-0.16288 12.46-0.13029 1.1977 0.0094 2.3951 0.04466 3.5927 0.06699 5.6283 0.0444 11.251 0.32388 16.874 0.55267 2.4715 0.08541 4.943 0.19358 7.4119 0.33643 0.96937 0.0294 1.9383 0.05828 2.9069 0.10732 0.24744 0.02262 0.49719 0.0281 0.74284 0.06856 0.0449 0.0074 0.08999 0.0154 0.13337 0.02913 0.02859 9e-3 0.05524 0.05376 0.08119 0.03874 1.1482-0.66473 2.2713-1.372 3.4069-2.0581-0.04598-0.07632-0.07884-0.16227-0.13794-0.22895-0.08153-0.09199-0.18706-0.15953-0.27884-0.2413-0.11263-0.10033-0.22377-0.20235-0.33434-0.30494-0.56953-0.52844-1.1444-1.0464-1.7296-1.5578-1.0672-1.0035-2.1908-1.9681-3.0797-3.1404-0.59638-1.3434-0.10723-0.37616-3.4633 1.8497-0.05912 0.03921 0.09419 0.1062 0.14424 0.15647 0.0774 0.07774 0.16121 0.14896 0.23794 0.22736 0.23982 0.24506 0.41488 0.45488 0.64305 0.71692 0.41821 0.50142 0.85894 0.98345 1.286 1.4771 0.14057 0.16246 0.27391 0.33112 0.41551 0.49269 0.55758 0.61203 0.28939 0.31 0.80567 0.90514 0.38426 0.52511 0.8813 0.96596 1.2371 1.5117 0.01482 0.03687 0.04511 0.07087 0.04447 0.1106-5.29e-4 0.03254-0.12165 0.0486-0.12336 0.04934-0.06475 0.02801-0.12954 0.05778-0.18787 0.09746-0.22223 0.15116-0.52356 0.43491-0.70802 0.59911-0.93653 0.8308-1.9638 1.5489-2.9175 2.3584-0.32281 0.3086-0.65665 0.60694-1.0031 0.88889-0.21866 0.13528-0.41041 0.30535-0.61956 0.45348l3.6023-1.4311v0c0.20216-0.1582 0.41499-0.3027 0.60661-0.4741 0.31-0.27164 0.60795-0.55341 0.89329-0.85097 0.89245-0.80593 1.8476-1.5398 2.7843-2.2928 0.17847-0.13753 0.35843-0.27315 0.53542-0.41259 0.20962-0.16515 0.46318-0.33586 0.58555-0.58885 0.0668-0.1381-0.07766-0.3858-0.15942-0.48677-0.44206-0.51783-1.0129-0.90645-1.4665-1.4152-0.87591-0.90533-1.7486-1.8259-2.4614-2.8684-0.31051-0.44762-0.26154-0.36046-0.52322-0.79594-0.04704-0.07828-0.09851-0.15443-0.13712-0.23719-0.01497-0.03208 0.0092-0.12064-0.02196-0.1039-3.5822 1.9221-4.5724 1.3516-3.237 2.0373 1.2144 0.87748 2.3264 1.8933 3.3834 2.9527 0.64071 0.69017 0.54743 0.56471 1.0976 1.2442 0.20592 0.25433 0.59194 0.70361 0.7375 1.0098 5e-3 0.01045-0.02193-0.0073-0.03289-0.01101 1.1248-0.64984 2.2496-1.2997 3.3745-1.9495-0.02889 0.01146-0.05561 0.03318-0.08667 0.0344-0.05954 0.0024-0.11797-0.01707-0.17715-0.02405-0.27416-0.03243-0.54897-0.03807-0.82474-0.04663-0.42177-0.01064-0.84019 0.0096-1.262 0.01595-0.61747 0.0093-1.2351 5.29e-4 -1.8525 0.01492-0.95892 0.02925-1.9178 0.04946-2.8763 0.09266-1.7879 0.08058-3.5754 0.18481-5.3662 0.17494-2.9825 0.01508-1.9628 0.0282-5.076-0.03477-1.4512-0.02935-4.356-0.11012-5.783-0.10659-1.0606 0.0026-2.1208 0.04415-3.1813 0.05793-1.1755 0.01527-2.3512 0.01947-3.5267 0.02921-5.1356 0.09196-2.5194 0.05598-7.8486 0.10547-1.3916 0.02212-2.7827 0.07381-4.1744 0.09318-1.4171 0.01971-2.8345 0.02289-4.2518 0.02408-4.5337 0.0038-3.3124 0.0098-7.6198-0.15045-0.91327-0.03744-1.8268-0.0682-2.7398-0.11233-4.3354-0.20956-0.12629-0.04285-3.3941-0.18363-0.50686-0.02183-1.0146-0.02119-1.5212-0.04941-0.11028-0.0061-0.21963-0.02368-0.32944-0.03552l-3.1964 2.3223z" style="fill:#23afdc;filter:url(#filter7037);paint-order:markers stroke fill;stroke-linecap:round;stroke-linejoin:round;stroke-width:.79375;stroke:#000"/>
 </g>
</svg>
